<mxfile host="65bd71144e">
    <diagram id="UWU9yrfVLj3En8_xCBOz" name="Overall">
        <mxGraphModel dx="1916" dy="621" grid="1" gridSize="10" guides="1" tooltips="1" connect="1" arrows="1" fold="1" page="1" pageScale="1" pageWidth="850" pageHeight="1100" math="0" shadow="0">
            <root>
                <mxCell id="0"/>
                <mxCell id="1" parent="0"/>
                <mxCell id="3" value="" style="rounded=1;whiteSpace=wrap;html=1;" parent="1" vertex="1">
                    <mxGeometry x="120" y="200" width="340" height="250" as="geometry"/>
                </mxCell>
                <mxCell id="29" value="" style="rounded=1;whiteSpace=wrap;html=1;" parent="1" vertex="1">
                    <mxGeometry x="-100" y="270" width="160" height="100" as="geometry"/>
                </mxCell>
                <mxCell id="28" style="edgeStyle=orthogonalEdgeStyle;html=1;entryX=0;entryY=0.5;entryDx=0;entryDy=0;startArrow=classic;startFill=1;endArrow=classic;endFill=1;" parent="1" source="2" target="11" edge="1">
                    <mxGeometry relative="1" as="geometry"/>
                </mxCell>
                <mxCell id="2" value="Oauth2 Proxy" style="rounded=1;whiteSpace=wrap;html=1;" parent="1" vertex="1">
                    <mxGeometry x="-80" y="290" width="120" height="60" as="geometry"/>
                </mxCell>
                <mxCell id="4" value="" style="rounded=1;whiteSpace=wrap;html=1;" parent="1" vertex="1">
                    <mxGeometry x="540" y="200" width="340" height="250" as="geometry"/>
                </mxCell>
                <mxCell id="5" value="Frontend" style="text;html=1;strokeColor=none;fillColor=none;align=center;verticalAlign=middle;whiteSpace=wrap;rounded=0;" parent="1" vertex="1">
                    <mxGeometry x="250" y="170" width="60" height="30" as="geometry"/>
                </mxCell>
                <mxCell id="7" value="Backend" style="text;html=1;strokeColor=none;fillColor=none;align=center;verticalAlign=middle;whiteSpace=wrap;rounded=0;" parent="1" vertex="1">
                    <mxGeometry x="680" y="170" width="60" height="30" as="geometry"/>
                </mxCell>
                <mxCell id="15" style="edgeStyle=orthogonalEdgeStyle;html=1;entryX=0;entryY=0.5;entryDx=0;entryDy=0;" parent="1" source="10" target="14" edge="1">
                    <mxGeometry relative="1" as="geometry"/>
                </mxCell>
                <mxCell id="10" value="Chat Page" style="rounded=1;whiteSpace=wrap;html=1;" parent="1" vertex="1">
                    <mxGeometry x="310" y="220" width="120" height="60" as="geometry"/>
                </mxCell>
                <mxCell id="19" style="edgeStyle=orthogonalEdgeStyle;html=1;entryX=0;entryY=0.5;entryDx=0;entryDy=0;" parent="1" source="11" target="10" edge="1">
                    <mxGeometry relative="1" as="geometry"/>
                </mxCell>
                <mxCell id="21" style="edgeStyle=orthogonalEdgeStyle;html=1;entryX=0;entryY=0.5;entryDx=0;entryDy=0;" parent="1" source="11" target="12" edge="1">
                    <mxGeometry relative="1" as="geometry"/>
                </mxCell>
                <mxCell id="p1TXQrBb3vgy2d-HC9ok-31" style="edgeStyle=orthogonalEdgeStyle;html=1;entryX=0;entryY=0.5;entryDx=0;entryDy=0;startArrow=none;startFill=0;endArrow=classic;endFill=1;" parent="1" source="11" target="p1TXQrBb3vgy2d-HC9ok-30" edge="1">
                    <mxGeometry relative="1" as="geometry"/>
                </mxCell>
                <mxCell id="11" value="Home" style="rounded=1;whiteSpace=wrap;html=1;" parent="1" vertex="1">
                    <mxGeometry x="140" y="290" width="120" height="60" as="geometry"/>
                </mxCell>
                <mxCell id="16" style="edgeStyle=orthogonalEdgeStyle;html=1;entryX=0;entryY=0.5;entryDx=0;entryDy=0;" parent="1" source="12" target="14" edge="1">
                    <mxGeometry relative="1" as="geometry"/>
                </mxCell>
                <mxCell id="12" value="Model Select" style="rounded=1;whiteSpace=wrap;html=1;" parent="1" vertex="1">
                    <mxGeometry x="310" y="290" width="120" height="60" as="geometry"/>
                </mxCell>
                <mxCell id="23" style="edgeStyle=orthogonalEdgeStyle;html=1;entryX=0.5;entryY=0;entryDx=0;entryDy=0;endArrow=classic;endFill=1;startArrow=classic;startFill=1;" parent="1" source="14" target="22" edge="1">
                    <mxGeometry relative="1" as="geometry"/>
                </mxCell>
                <mxCell id="25" style="edgeStyle=orthogonalEdgeStyle;html=1;entryX=0;entryY=0.5;entryDx=0;entryDy=0;startArrow=classic;startFill=1;endArrow=classic;endFill=1;" parent="1" source="14" target="24" edge="1">
                    <mxGeometry relative="1" as="geometry"/>
                </mxCell>
                <mxCell id="14" value="REST API" style="rounded=1;whiteSpace=wrap;html=1;" parent="1" vertex="1">
                    <mxGeometry x="557.5" y="250" width="120" height="60" as="geometry"/>
                </mxCell>
                <mxCell id="22" value="Internal Database" style="rounded=1;whiteSpace=wrap;html=1;" parent="1" vertex="1">
                    <mxGeometry x="557.5" y="360" width="120" height="60" as="geometry"/>
                </mxCell>
                <mxCell id="27" style="edgeStyle=orthogonalEdgeStyle;html=1;startArrow=classic;startFill=1;endArrow=classic;endFill=1;" parent="1" source="24" target="26" edge="1">
                    <mxGeometry relative="1" as="geometry"/>
                </mxCell>
                <mxCell id="24" value="LLM ( llama3.2 )" style="rounded=1;whiteSpace=wrap;html=1;" parent="1" vertex="1">
                    <mxGeometry x="750" y="250" width="120" height="60" as="geometry"/>
                </mxCell>
                <mxCell id="26" value="Vector DB" style="rounded=1;whiteSpace=wrap;html=1;" parent="1" vertex="1">
                    <mxGeometry x="750" y="360" width="120" height="60" as="geometry"/>
                </mxCell>
                <mxCell id="30" value="Login Page" style="text;html=1;strokeColor=none;fillColor=none;align=center;verticalAlign=middle;whiteSpace=wrap;rounded=0;" parent="1" vertex="1">
                    <mxGeometry x="-110" y="240" width="90" height="30" as="geometry"/>
                </mxCell>
                <mxCell id="p1TXQrBb3vgy2d-HC9ok-32" style="edgeStyle=orthogonalEdgeStyle;html=1;entryX=0;entryY=0.5;entryDx=0;entryDy=0;startArrow=none;startFill=0;endArrow=classic;endFill=1;" parent="1" source="p1TXQrBb3vgy2d-HC9ok-30" target="14" edge="1">
                    <mxGeometry relative="1" as="geometry"/>
                </mxCell>
                <mxCell id="p1TXQrBb3vgy2d-HC9ok-30" value="Options" style="rounded=1;whiteSpace=wrap;html=1;" parent="1" vertex="1">
                    <mxGeometry x="310" y="370" width="120" height="60" as="geometry"/>
                </mxCell>
            </root>
        </mxGraphModel>
    </diagram>
    <diagram id="uhJoJgP5bdGmIqc_Bq1v" name="User Journey">
        <mxGraphModel dx="888" dy="518" grid="1" gridSize="10" guides="1" tooltips="1" connect="1" arrows="1" fold="1" page="1" pageScale="1" pageWidth="850" pageHeight="1100" math="0" shadow="0">
            <root>
                <mxCell id="0"/>
                <mxCell id="1" parent="0"/>
                <mxCell id="PY_5V-qxE0xhI6i5ee8Q-2" style="edgeStyle=orthogonalEdgeStyle;html=1;entryX=0;entryY=0.5;entryDx=0;entryDy=0;startArrow=none;startFill=0;endArrow=classic;endFill=1;" parent="1" source="hA45c0c0DXqP8DS8I18_-1" target="PY_5V-qxE0xhI6i5ee8Q-1" edge="1">
                    <mxGeometry relative="1" as="geometry"/>
                </mxCell>
                <mxCell id="hA45c0c0DXqP8DS8I18_-1" value="User" style="shape=umlActor;verticalLabelPosition=bottom;verticalAlign=top;html=1;outlineConnect=0;" parent="1" vertex="1">
                    <mxGeometry x="60" y="170" width="30" height="60" as="geometry"/>
                </mxCell>
                <mxCell id="PY_5V-qxE0xhI6i5ee8Q-4" style="edgeStyle=orthogonalEdgeStyle;html=1;startArrow=none;startFill=0;endArrow=classic;endFill=1;" parent="1" source="PY_5V-qxE0xhI6i5ee8Q-1" edge="1">
                    <mxGeometry relative="1" as="geometry">
                        <mxPoint x="315" y="200" as="targetPoint"/>
                    </mxGeometry>
                </mxCell>
                <mxCell id="PY_5V-qxE0xhI6i5ee8Q-1" value="Login" style="rounded=1;whiteSpace=wrap;html=1;" parent="1" vertex="1">
                    <mxGeometry x="145" y="170" width="120" height="60" as="geometry"/>
                </mxCell>
                <mxCell id="PY_5V-qxE0xhI6i5ee8Q-3" value="" style="rounded=1;whiteSpace=wrap;html=1;" parent="1" vertex="1">
                    <mxGeometry x="315" y="170" width="120" height="200" as="geometry"/>
                </mxCell>
                <mxCell id="PY_5V-qxE0xhI6i5ee8Q-28" style="edgeStyle=orthogonalEdgeStyle;html=1;entryX=0;entryY=0.5;entryDx=0;entryDy=0;startArrow=none;startFill=0;endArrow=classic;endFill=1;" parent="1" source="PY_5V-qxE0xhI6i5ee8Q-5" target="PY_5V-qxE0xhI6i5ee8Q-9" edge="1">
                    <mxGeometry relative="1" as="geometry"/>
                </mxCell>
                <mxCell id="PY_5V-qxE0xhI6i5ee8Q-30" style="edgeStyle=orthogonalEdgeStyle;html=1;entryX=0;entryY=0.5;entryDx=0;entryDy=0;startArrow=none;startFill=0;endArrow=classic;endFill=1;" parent="1" source="PY_5V-qxE0xhI6i5ee8Q-5" target="PY_5V-qxE0xhI6i5ee8Q-29" edge="1">
                    <mxGeometry relative="1" as="geometry"/>
                </mxCell>
                <mxCell id="PY_5V-qxE0xhI6i5ee8Q-32" style="edgeStyle=orthogonalEdgeStyle;html=1;entryX=0;entryY=0.5;entryDx=0;entryDy=0;startArrow=none;startFill=0;endArrow=classic;endFill=1;" parent="1" source="PY_5V-qxE0xhI6i5ee8Q-5" target="PY_5V-qxE0xhI6i5ee8Q-31" edge="1">
                    <mxGeometry relative="1" as="geometry"/>
                </mxCell>
                <mxCell id="PY_5V-qxE0xhI6i5ee8Q-5" value="Chat Page" style="rounded=1;whiteSpace=wrap;html=1;" parent="1" vertex="1">
                    <mxGeometry x="325" y="185" width="100" height="45" as="geometry"/>
                </mxCell>
                <mxCell id="PY_5V-qxE0xhI6i5ee8Q-7" value="Home" style="text;html=1;strokeColor=none;fillColor=none;align=center;verticalAlign=middle;whiteSpace=wrap;rounded=0;" parent="1" vertex="1">
                    <mxGeometry x="345" y="140" width="60" height="30" as="geometry"/>
                </mxCell>
                <mxCell id="PY_5V-qxE0xhI6i5ee8Q-8" value="Model Select" style="rounded=1;whiteSpace=wrap;html=1;" parent="1" vertex="1">
                    <mxGeometry x="325" y="247.5" width="100" height="45" as="geometry"/>
                </mxCell>
                <mxCell id="PY_5V-qxE0xhI6i5ee8Q-9" value="Chat History" style="rounded=1;whiteSpace=wrap;html=1;" parent="1" vertex="1">
                    <mxGeometry x="510" y="50" width="100" height="45" as="geometry"/>
                </mxCell>
                <mxCell id="PY_5V-qxE0xhI6i5ee8Q-12" style="edgeStyle=orthogonalEdgeStyle;html=1;entryX=0;entryY=0.5;entryDx=0;entryDy=0;startArrow=none;startFill=0;endArrow=classic;endFill=1;" parent="1" source="PY_5V-qxE0xhI6i5ee8Q-10" target="PY_5V-qxE0xhI6i5ee8Q-11" edge="1">
                    <mxGeometry relative="1" as="geometry"/>
                </mxCell>
                <mxCell id="PY_5V-qxE0xhI6i5ee8Q-16" style="edgeStyle=orthogonalEdgeStyle;html=1;entryX=0;entryY=0.5;entryDx=0;entryDy=0;startArrow=none;startFill=0;endArrow=classic;endFill=1;" parent="1" source="PY_5V-qxE0xhI6i5ee8Q-10" target="PY_5V-qxE0xhI6i5ee8Q-15" edge="1">
                    <mxGeometry relative="1" as="geometry"/>
                </mxCell>
                <mxCell id="PY_5V-qxE0xhI6i5ee8Q-18" style="edgeStyle=orthogonalEdgeStyle;html=1;entryX=0;entryY=0.5;entryDx=0;entryDy=0;startArrow=none;startFill=0;endArrow=classic;endFill=1;" parent="1" source="PY_5V-qxE0xhI6i5ee8Q-10" target="PY_5V-qxE0xhI6i5ee8Q-17" edge="1">
                    <mxGeometry relative="1" as="geometry"/>
                </mxCell>
                <mxCell id="PY_5V-qxE0xhI6i5ee8Q-20" style="edgeStyle=orthogonalEdgeStyle;html=1;entryX=0;entryY=0.5;entryDx=0;entryDy=0;startArrow=none;startFill=0;endArrow=classic;endFill=1;" parent="1" source="PY_5V-qxE0xhI6i5ee8Q-10" target="PY_5V-qxE0xhI6i5ee8Q-19" edge="1">
                    <mxGeometry relative="1" as="geometry"/>
                </mxCell>
                <mxCell id="PY_5V-qxE0xhI6i5ee8Q-10" value="Options" style="rounded=1;whiteSpace=wrap;html=1;" parent="1" vertex="1">
                    <mxGeometry x="325" y="310" width="100" height="45" as="geometry"/>
                </mxCell>
                <mxCell id="PY_5V-qxE0xhI6i5ee8Q-23" value="" style="edgeStyle=orthogonalEdgeStyle;html=1;startArrow=none;startFill=0;endArrow=classic;endFill=1;" parent="1" source="PY_5V-qxE0xhI6i5ee8Q-11" target="PY_5V-qxE0xhI6i5ee8Q-22" edge="1">
                    <mxGeometry relative="1" as="geometry"/>
                </mxCell>
                <mxCell id="PY_5V-qxE0xhI6i5ee8Q-25" style="edgeStyle=orthogonalEdgeStyle;html=1;entryX=0;entryY=0.5;entryDx=0;entryDy=0;startArrow=none;startFill=0;endArrow=classic;endFill=1;" parent="1" source="PY_5V-qxE0xhI6i5ee8Q-11" target="PY_5V-qxE0xhI6i5ee8Q-24" edge="1">
                    <mxGeometry relative="1" as="geometry"/>
                </mxCell>
                <mxCell id="PY_5V-qxE0xhI6i5ee8Q-27" style="edgeStyle=orthogonalEdgeStyle;html=1;entryX=0;entryY=0.5;entryDx=0;entryDy=0;startArrow=none;startFill=0;endArrow=classic;endFill=1;" parent="1" source="PY_5V-qxE0xhI6i5ee8Q-11" target="PY_5V-qxE0xhI6i5ee8Q-26" edge="1">
                    <mxGeometry relative="1" as="geometry"/>
                </mxCell>
                <mxCell id="PY_5V-qxE0xhI6i5ee8Q-36" style="edgeStyle=orthogonalEdgeStyle;html=1;entryX=0;entryY=0.5;entryDx=0;entryDy=0;startArrow=none;startFill=0;endArrow=classic;endFill=1;" parent="1" source="PY_5V-qxE0xhI6i5ee8Q-11" target="PY_5V-qxE0xhI6i5ee8Q-35" edge="1">
                    <mxGeometry relative="1" as="geometry"/>
                </mxCell>
                <mxCell id="PY_5V-qxE0xhI6i5ee8Q-11" value="Model Create &amp;amp; Adjust" style="rounded=1;whiteSpace=wrap;html=1;" parent="1" vertex="1">
                    <mxGeometry x="510" y="477.5" width="160" height="60" as="geometry"/>
                </mxCell>
                <mxCell id="PY_5V-qxE0xhI6i5ee8Q-15" value="Datasets Create" style="rounded=1;whiteSpace=wrap;html=1;" parent="1" vertex="1">
                    <mxGeometry x="510" y="555" width="120" height="60" as="geometry"/>
                </mxCell>
                <mxCell id="PY_5V-qxE0xhI6i5ee8Q-17" value="Prompt template" style="rounded=1;whiteSpace=wrap;html=1;" parent="1" vertex="1">
                    <mxGeometry x="510" y="635" width="120" height="60" as="geometry"/>
                </mxCell>
                <mxCell id="PY_5V-qxE0xhI6i5ee8Q-19" value="Response Config" style="rounded=1;whiteSpace=wrap;html=1;" parent="1" vertex="1">
                    <mxGeometry x="510" y="405" width="120" height="60" as="geometry"/>
                </mxCell>
                <mxCell id="PY_5V-qxE0xhI6i5ee8Q-22" value="Parameter" style="whiteSpace=wrap;html=1;rounded=1;" parent="1" vertex="1">
                    <mxGeometry x="720" y="477.5" width="120" height="60" as="geometry"/>
                </mxCell>
                <mxCell id="PY_5V-qxE0xhI6i5ee8Q-24" value="Top K &amp;amp; P" style="whiteSpace=wrap;html=1;rounded=1;" parent="1" vertex="1">
                    <mxGeometry x="720" y="555" width="120" height="60" as="geometry"/>
                </mxCell>
                <mxCell id="PY_5V-qxE0xhI6i5ee8Q-26" value="Select Datasets" style="whiteSpace=wrap;html=1;rounded=1;" parent="1" vertex="1">
                    <mxGeometry x="720" y="405" width="120" height="60" as="geometry"/>
                </mxCell>
                <mxCell id="PY_5V-qxE0xhI6i5ee8Q-29" value="Model Select" style="rounded=1;whiteSpace=wrap;html=1;" parent="1" vertex="1">
                    <mxGeometry x="510" y="120" width="100" height="45" as="geometry"/>
                </mxCell>
                <mxCell id="PY_5V-qxE0xhI6i5ee8Q-31" value="Prompt" style="rounded=1;whiteSpace=wrap;html=1;" parent="1" vertex="1">
                    <mxGeometry x="510" y="185" width="100" height="45" as="geometry"/>
                </mxCell>
                <mxCell id="PY_5V-qxE0xhI6i5ee8Q-35" value="Temperature" style="whiteSpace=wrap;html=1;rounded=1;" parent="1" vertex="1">
                    <mxGeometry x="720" y="635" width="120" height="60" as="geometry"/>
                </mxCell>
            </root>
        </mxGraphModel>
    </diagram>
    <diagram id="uUxM_Npg-BbKzg_WnnOg" name="Login Architecture">
        <mxGraphModel dx="1066" dy="621" grid="1" gridSize="10" guides="1" tooltips="1" connect="1" arrows="1" fold="1" page="1" pageScale="1" pageWidth="850" pageHeight="1100" math="0" shadow="0">
            <root>
                <mxCell id="0"/>
                <mxCell id="1" parent="0"/>
            </root>
        </mxGraphModel>
    </diagram>
    <diagram id="aIUs13HwPhJ97i6IKoqL" name="Frontend">
        <mxGraphModel dx="1066" dy="621" grid="1" gridSize="10" guides="1" tooltips="1" connect="1" arrows="1" fold="1" page="1" pageScale="1" pageWidth="850" pageHeight="1100" math="0" shadow="0">
            <root>
                <mxCell id="0"/>
                <mxCell id="1" parent="0"/>
            </root>
        </mxGraphModel>
    </diagram>
    <diagram id="qUOfw44BjjRankXvTfsQ" name="Backend">
        <mxGraphModel dx="849" dy="621" grid="1" gridSize="10" guides="1" tooltips="1" connect="1" arrows="1" fold="1" page="1" pageScale="1" pageWidth="850" pageHeight="1100" math="0" shadow="0">
            <root>
                <mxCell id="0"/>
                <mxCell id="1" parent="0"/>
            </root>
        </mxGraphModel>
    </diagram>
    <diagram id="XrW4m-w4PanP_BGBwHqZ" name="API Router">
        <mxGraphModel dx="1066" dy="621" grid="1" gridSize="10" guides="1" tooltips="1" connect="1" arrows="1" fold="1" page="1" pageScale="1" pageWidth="850" pageHeight="1100" math="0" shadow="0">
            <root>
                <mxCell id="0"/>
                <mxCell id="1" parent="0"/>
                <mxCell id="KJGJXhQH9srAREduoz0Q-5" value="" style="rounded=1;whiteSpace=wrap;html=1;" parent="1" vertex="1">
                    <mxGeometry x="430" y="200" width="210" height="240" as="geometry"/>
                </mxCell>
                <mxCell id="KJGJXhQH9srAREduoz0Q-1" value="" style="rounded=1;whiteSpace=wrap;html=1;" parent="1" vertex="1">
                    <mxGeometry x="130" y="200" width="210" height="240" as="geometry"/>
                </mxCell>
                <mxCell id="KJGJXhQH9srAREduoz0Q-2" value="Frontend" style="text;html=1;strokeColor=none;fillColor=none;align=center;verticalAlign=middle;whiteSpace=wrap;rounded=0;" parent="1" vertex="1">
                    <mxGeometry x="205" y="170" width="60" height="30" as="geometry"/>
                </mxCell>
                <mxCell id="KJGJXhQH9srAREduoz0Q-3" value="Prompt" style="rounded=1;whiteSpace=wrap;html=1;" parent="1" vertex="1">
                    <mxGeometry x="175" y="220" width="120" height="30" as="geometry"/>
                </mxCell>
                <mxCell id="KJGJXhQH9srAREduoz0Q-4" value="REST API" style="rounded=1;whiteSpace=wrap;html=1;" parent="1" vertex="1">
                    <mxGeometry x="475" y="220" width="120" height="30" as="geometry"/>
                </mxCell>
                <mxCell id="KJGJXhQH9srAREduoz0Q-6" value="Backend" style="text;html=1;strokeColor=none;fillColor=none;align=center;verticalAlign=middle;whiteSpace=wrap;rounded=0;" parent="1" vertex="1">
                    <mxGeometry x="505" y="170" width="60" height="30" as="geometry"/>
                </mxCell>
            </root>
        </mxGraphModel>
    </diagram>
    <diagram id="97zRUgveVWg1ezdDAZ6k" name="RAG system">
        <mxGraphModel dx="1066" dy="621" grid="1" gridSize="10" guides="1" tooltips="1" connect="1" arrows="1" fold="1" page="1" pageScale="1" pageWidth="850" pageHeight="1100" math="0" shadow="0">
            <root>
                <mxCell id="0"/>
                <mxCell id="1" parent="0"/>
                <mxCell id="3FK0M7PpJaztyaFEtY08-1" value="Prompt" style="rounded=1;whiteSpace=wrap;html=1;" parent="1" vertex="1">
                    <mxGeometry x="40" y="200" width="100" height="40" as="geometry"/>
                </mxCell>
                <mxCell id="3FK0M7PpJaztyaFEtY08-7" style="edgeStyle=orthogonalEdgeStyle;html=1;startArrow=none;startFill=0;endArrow=classic;endFill=1;" parent="1" source="3FK0M7PpJaztyaFEtY08-2" target="3FK0M7PpJaztyaFEtY08-6" edge="1">
                    <mxGeometry relative="1" as="geometry"/>
                </mxCell>
                <mxCell id="3FK0M7PpJaztyaFEtY08-2" value="Vector DB" style="rounded=1;whiteSpace=wrap;html=1;" parent="1" vertex="1">
                    <mxGeometry x="320" y="200" width="100" height="40" as="geometry"/>
                </mxCell>
                <mxCell id="3FK0M7PpJaztyaFEtY08-5" style="edgeStyle=orthogonalEdgeStyle;html=1;entryX=0;entryY=0.5;entryDx=0;entryDy=0;startArrow=none;startFill=0;endArrow=classic;endFill=1;" parent="1" source="3FK0M7PpJaztyaFEtY08-3" target="3FK0M7PpJaztyaFEtY08-2" edge="1">
                    <mxGeometry relative="1" as="geometry"/>
                </mxCell>
                <mxCell id="3FK0M7PpJaztyaFEtY08-3" value="LLM ( llama3.2 )" style="rounded=1;whiteSpace=wrap;html=1;" parent="1" vertex="1">
                    <mxGeometry x="170" y="200" width="120" height="40" as="geometry"/>
                </mxCell>
                <mxCell id="3FK0M7PpJaztyaFEtY08-4" value="" style="edgeStyle=orthogonalEdgeStyle;html=1;startArrow=none;startFill=0;endArrow=classic;endFill=1;" parent="1" source="3FK0M7PpJaztyaFEtY08-1" target="3FK0M7PpJaztyaFEtY08-3" edge="1">
                    <mxGeometry relative="1" as="geometry"/>
                </mxCell>
                <mxCell id="3FK0M7PpJaztyaFEtY08-10" style="edgeStyle=orthogonalEdgeStyle;html=1;entryX=1;entryY=0.5;entryDx=0;entryDy=0;startArrow=none;startFill=0;endArrow=classic;endFill=1;exitX=0.5;exitY=1;exitDx=0;exitDy=0;" parent="1" source="3FK0M7PpJaztyaFEtY08-6" target="3FK0M7PpJaztyaFEtY08-9" edge="1">
                    <mxGeometry relative="1" as="geometry"/>
                </mxCell>
                <mxCell id="3FK0M7PpJaztyaFEtY08-6" value="Answer" style="rounded=1;whiteSpace=wrap;html=1;" parent="1" vertex="1">
                    <mxGeometry x="450" y="200" width="100" height="40" as="geometry"/>
                </mxCell>
                <mxCell id="3FK0M7PpJaztyaFEtY08-11" style="edgeStyle=orthogonalEdgeStyle;html=1;entryX=0.5;entryY=1;entryDx=0;entryDy=0;startArrow=none;startFill=0;endArrow=classic;endFill=1;" parent="1" source="3FK0M7PpJaztyaFEtY08-9" target="3FK0M7PpJaztyaFEtY08-2" edge="1">
                    <mxGeometry relative="1" as="geometry"/>
                </mxCell>
                <mxCell id="3FK0M7PpJaztyaFEtY08-9" value="Embedding" style="rounded=1;whiteSpace=wrap;html=1;" parent="1" vertex="1">
                    <mxGeometry x="320" y="280" width="100" height="40" as="geometry"/>
                </mxCell>
                <mxCell id="3FK0M7PpJaztyaFEtY08-13" style="edgeStyle=orthogonalEdgeStyle;html=1;entryX=0.5;entryY=1;entryDx=0;entryDy=0;startArrow=none;startFill=0;endArrow=classic;endFill=1;" parent="1" source="3FK0M7PpJaztyaFEtY08-12" target="3FK0M7PpJaztyaFEtY08-9" edge="1">
                    <mxGeometry relative="1" as="geometry"/>
                </mxCell>
                <mxCell id="3FK0M7PpJaztyaFEtY08-12" value="Document ( PDF )" style="rounded=1;whiteSpace=wrap;html=1;" parent="1" vertex="1">
                    <mxGeometry x="315" y="360" width="110" height="40" as="geometry"/>
                </mxCell>
            </root>
        </mxGraphModel>
    </diagram>
</mxfile>